PathFileType	4	(X/Y/Z)	9_2_32_p1_0-175_filt_butterworth.trc
DataRate	CameraRate	NumFrames	NumMarkers	Units	OrigDataRate	OrigDataStartFrame	OrigNumFrames
58.0	58.0	7	27	m	58.0	153	175
Frame#	Time	RHip			RKnee			RAnkle			RBigToe			RSmallToe			RHeel			LHip			LKnee			LAnkle			LBigToe			LSmallToe			LHeel			Neck			Head			Nose			RShoulder			RElbow			RWrist			RThumb			RIndex			RPinky			LShoulder			LElbow			LWrist			LThumb			LIndex			LPinky			
		X1	Y1	Z1	X2	Y2	Z2	X3	Y3	Z3	X4	Y4	Z4	X5	Y5	Z5	X6	Y6	Z6	X7	Y7	Z7	X8	Y8	Z8	X9	Y9	Z9	X10	Y10	Z10	X11	Y11	Z11	X12	Y12	Z12	X13	Y13	Z13	X14	Y14	Z14	X15	Y15	Z15	X16	Y16	Z16	X17	Y17	Z17	X18	Y18	Z18	X19	Y19	Z19	X20	Y20	Z20	X21	Y21	Z21	X22	Y22	Z22	X23	Y23	Z23	X24	Y24	Z24	X25	Y25	Z25	X26	Y26	Z26	X27	Y27	Z27	
153	2.6379310344827585	0.31687074956954886	0.4639640987945748	1.118976455372243	0.2926781818350169	0.5135316743526979	1.5019916261976467	0.2868771346391385	0.6108296160004109	1.9270913312980302	0.2772267967135742	0.37044748293970475	1.8780506196408682	0.3340800627127399	0.3932200021173766	1.8773865608133775	0.2708733989017135	0.7100398714778174	2.009567293361773	0.09380885447318567	0.47338498660221784	1.129538622336766	0.11263058013800797	0.5075920991637699	1.5015292496404316	0.09035494457592659	0.5947003985106712	1.8987387435776468	0.11416740110770732	0.3557620376443466	1.860007191243308	0.059211346920593606	0.4252662768983748	1.8685786497397707	0.07838812815001411	0.7295210612489673	2.007998375741989	0.22995662354419996	0.37245005097184386	0.5968792699445553	0.23850774181017909	0.33864979631621983	0.34920062054905904	0.24429313385949047	0.2856982597859805	0.4894693954180399	0.3857686777340559	0.400068513229939	0.7042005079740674	0.4437158374457003	0.40663979392969557	0.9371115534269984	0.41559667053306887	0.33960170741577045	1.1558432331488193	0.32917340626150854	0.325219520841647	1.262775230310579	0.34029814475616177	0.328015632983894	1.2761719548349615	0.38147684319903097	0.3854506190491573	1.2859911135793458	0.05410110757694112	0.38605379832963876	0.6916715001874449	-0.02721131205073025	0.45505812599128137	0.9465735800304331	-0.028272764071431734	0.45157847447162336	1.1627658579843998	0.006959240442383628	0.4271787400668545	1.2608958052476205	-0.01749557676923247	0.4224853951913537	1.280582351844914	-0.06714367123189421	0.3866315200305993	1.2442110662670174
154	2.655172413793104	0.315118206083003	0.46783623892134607	1.120442264481308	0.28963617176264556	0.5072193357109581	1.4953059904239012	0.2895893638874031	0.6069703826397552	1.9241165801854978	0.2745503052714677	0.36493360381904427	1.8749915056304438	0.3337648164757006	0.3874722904377186	1.8734313546278902	0.2719529565918155	0.7085887113813574	2.006517876081946	0.09386841576976489	0.4746932877677041	1.1310778319180481	0.113191049435729	0.5154840314285271	1.5012383422963527	0.09018134945826421	0.5954702241865191	1.8972299145543183	0.11412668930448669	0.3553764205658662	1.85997238626079	0.05922553488275064	0.42503125719087215	1.8687902165583987	0.07570992465350469	0.7245649300544214	2.004166316906403	0.22987505165257094	0.3725675339612708	0.5969172648437134	0.23840287265517313	0.34549562996696076	0.3490747218220917	0.24274094626256995	0.2903844077350036	0.489835307228972	0.3843505225429231	0.3999560131723645	0.702310492812765	0.4428412862441879	0.4017272934917558	0.9413834288622183	0.3946209404597244	0.34630662120298605	1.1571943780394132	0.3016489930499905	0.3088340100142271	1.25373735617653	0.31724198066364356	0.30432896383774094	1.2685151552700011	0.3613525869639513	0.36931637315031046	1.2847760230423582	0.053916806858823454	0.38623100718441666	0.6919293256391879	-0.027047097911977527	0.4540718972940052	0.950869593365589	-0.022597844154844605	0.43208232064047825	1.1583607123210355	0.02550668387047412	0.4019262494971614	1.2530427904496828	-0.0020511688049806758	0.3873589172650189	1.2785426967520814	-0.05361380651681685	0.3739814098325942	1.2490153906906172
155	2.6724137931034484	0.31348359348819343	0.47736787527976465	1.1257430797676007	0.2863309637394414	0.49994960980916525	1.488972405651271	0.2931551937068766	0.6017356019923554	1.9196990579241626	0.27207551897747095	0.362734817949256	1.8741087789320057	0.33276557486482944	0.3890228698793557	1.8724356857776	0.27417208012315386	0.7038846693747537	2.001718209812046	0.09319846262910036	0.4767194484678724	1.133693668788613	0.1137695426989783	0.524045812256431	1.5004559210901847	0.09003065696993613	0.5966567285204479	1.8961138441120835	0.11414893395149128	0.35578662237116243	1.8600388145039648	0.05961086375224095	0.42482903310852305	1.869531105879229	0.07549567744048967	0.7201010100031442	2.0014657582008732	0.22973180124488826	0.37294798838450877	0.5969207903369235	0.23793248243370596	0.35135267746712834	0.3482507729816488	0.24119171243709275	0.29514274226482967	0.49019939343529445	0.38327963375746477	0.4000145613496834	0.7007610672589646	0.44077056408937665	0.3936724159168593	0.9439474994311452	0.3718225594418508	0.352582090892802	1.1593990297306267	0.2698491938126807	0.30080485332621787	1.2457423783960893	0.2919561460173258	0.2877120781807747	1.2642641859597628	0.33976861861454943	0.3436724566673212	1.2800637277100135	0.05371195391385877	0.38605028359991694	0.6920267824694615	-0.02507731763475076	0.4501429677241715	0.9527549239800538	-0.0124070671948539	0.4065182480681109	1.151981110151278	0.04501783505366675	0.38006031238742916	1.2456953643127997	0.014045551494631334	0.36302166914630607	1.2772079778398626	-0.035986135543445305	0.36467302672599294	1.2549074548549035
156	2.689655172413793	0.3126815859694073	0.4905227945522519	1.1339787906917782	0.284440225967605	0.4948516106641793	1.4866592525475368	0.29569714626528065	0.5974880454789426	1.9155311761703055	0.2712478236407285	0.3639592567795928	1.8747745489451397	0.33143552284765976	0.3947503960589389	1.873186932943894	0.2765945196048645	0.6973458106329801	1.9966924316679844	0.09204481414370744	0.4788755823483592	1.1382616178929597	0.11566136482451336	0.5276839863448869	1.4985363318302225	0.08999075739746998	0.5975392163701836	1.8957501415424494	0.11444721814983388	0.3579902917853941	1.8605160305094655	0.06051682750686994	0.4246779048137943	1.8706328967491164	0.07701042221642591	0.7201228667966557	2.0005093879938776	0.2297948989362547	0.3732574735707147	0.5968784072488379	0.23757210441716625	0.3535476828806378	0.3469064589550829	0.2397214282836153	0.2996566743606603	0.4905489056734057	0.38235382582336935	0.39999169964744574	0.699901038492161	0.4360458821170325	0.3836726697587789	0.9451747857355033	0.35092543213963723	0.34538322568379204	1.159320802808755	0.2385084816410754	0.2958200211587653	1.2381578167536191	0.2653510361553136	0.27998440825945015	1.2635556481172094	0.31587163348981084	0.31511461314113515	1.2737465418674956	0.05350481367116773	0.38547118540881	0.6916398393429033	-0.020410504642287962	0.44175676840468886	0.9526665412820143	0.0009630026474982262	0.3805527748908373	1.147191648707365	0.06496890230004194	0.35673000871924954	1.237922818066752	0.0316456494515922	0.34893686902840904	1.2763154349536405	-0.014919606544103403	0.3589181931828764	1.2617783378325131
157	2.706896551724138	0.31208224277923224	0.5014119157416043	1.142280841747987	0.2857664157495787	0.49494654271758365	1.4900038043298147	0.29647861816898585	0.5955920227137184	1.9131757374928124	0.27179807265533384	0.3660510575470357	1.875161781884426	0.3304999176921639	0.3992442336444355	1.873888871645586	0.2781392949844382	0.6922201598096064	1.9929814555941587	0.09086160728790207	0.4806407060638026	1.1438767551362656	0.11902459177711404	0.5246425160158076	1.4956952099717895	0.09006087712693486	0.5976504339117185	1.8958662778639264	0.11500535241684741	0.3615746479521057	1.8612603828738803	0.061496679459263216	0.42457020282995833	1.8709340025286825	0.07896135841356848	0.7232576669212113	2.000748680531903	0.23024327603310216	0.37379040848910833	0.5968614183375781	0.23742279950334333	0.3534050247349083	0.34575223086409484	0.23875783616889995	0.30256856846977	0.49076984923095973	0.38089133707143974	0.3999495830623848	0.6996598898077157	0.42854327432923855	0.37289524008412556	0.9460569297885469	0.33294995681946254	0.32530352495656634	1.1544824431369305	0.21176033216022028	0.28605229521785647	1.229334786135206	0.23849948083824185	0.2776668644589737	1.262509355927017	0.28845821893502877	0.2922659578997263	1.2682257461205135	0.053396740754148964	0.3847683226106118	0.6905732652919025	-0.013571506578011868	0.42935039622497767	0.9511473545885659	0.015228109074659052	0.3597830283426533	1.1459483810866433	0.08458230686088547	0.3298141051651767	1.2285086731593482	0.05483257051713739	0.3327510692066827	1.271590656503148	0.009434193070191624	0.35645495056187826	1.269552524276755
158	2.7241379310344827	0.3112276985259905	0.5051512563330114	1.1481787162759232	0.29049630190366277	0.5014732001840325	1.4972240168970927	0.29631564438357544	0.5954163538839049	1.91260834761827	0.2718819082891749	0.36733078562605354	1.8748753069266324	0.3302187310008902	0.4003474213491622	1.8739319929770426	0.27873276174117073	0.6900239556621801	1.9906010223716917	0.09003166132281025	0.4824809358258169	1.1488582028729821	0.1224860142534892	0.5178499080087228	1.4933116407043874	0.09013616957553111	0.5973373535407708	1.8960002168798071	0.1155130046978909	0.36466713751968766	1.8615752421793594	0.061793415847494856	0.42458442552175235	1.8689635967211717	0.08047615202119723	0.7243180302514809	2.0003611055011503	0.23092702430570572	0.37541288139383977	0.597001460394472	0.2374092526814891	0.352974568552968	0.345357172578893	0.238484137512361	0.30332887903899824	0.490817036033266	0.37885346579991525	0.3999088000372568	0.6996403172048832	0.4193799895188254	0.362934320726893	0.9473362180753554	0.3159834544697397	0.30231816983065996	1.1446860860262094	0.19047537513572785	0.2709588371924999	1.2177534003016328	0.21268694354527845	0.27494684516332635	1.2555997787714865	0.25756267026578894	0.2787464580380151	1.263500117332157	0.05376495380690351	0.3847069779848301	0.689187754184112	-0.00562579804995725	0.4137384569066256	0.9481797255996681	0.031013584052034197	0.342038122841846	1.145604877916754	0.10279648342849262	0.30292602845412314	1.2174273505707938	0.08372660947254636	0.30665296268783726	1.2601280079993953	0.03800409641733463	0.3505444311071987	1.2752261012398454
159	2.7413793103448274	0.3109788360642062	0.5014043291747439	1.151086460699617	0.2961860469668802	0.5115850896110837	1.5049649458726613	0.296198472713004	0.5958793028913458	1.913000498692229	0.27069832950865536	0.3679637670854764	1.8746928851377551	0.3302600881164648	0.399451115379316	1.8735173153567681	0.2789484143391172	0.6897625166584503	1.9888975654530603	0.09009322025460659	0.4843681073429585	1.152585868988576	0.12468481108015819	0.5123669927306653	1.4925714393306944	0.09010805844400882	0.5972118242776602	1.8956803590796971	0.11570692174650443	0.36610717787130187	1.8604697333150202	0.06128996863614039	0.42488881661538663	1.8648823633533995	0.08092180473029618	0.7219938646748401	1.9987489505164007	0.23112977901316573	0.3788442912824924	0.5973922702915877	0.23744607939211307	0.3530830433496924	0.34605385827596724	0.2384950549839231	0.30320362086679853	0.4908005299519498	0.37692885167041745	0.3997516380030351	0.6995077592118382	0.40985540872047627	0.35745062486159146	0.9493130842945547	0.2984599502740035	0.28321130180959186	1.131969605859111	0.17155688858440862	0.26035437666905636	1.203715283038249	0.1869667409848136	0.271037113267363	1.241193200130197	0.22633658255950595	0.2699030857260458	1.256397637580197	0.05504176665409603	0.3864240702838683	0.6882400596914204	0.0030714085814538264	0.39593529737453637	0.9444609391812437	0.05031435607279501	0.3216570607682982	1.1421947289858954	0.12061228032292924	0.278890584224193	1.2047031023915244	0.11368164667954175	0.27630477568323986	1.2445500721009253	0.06964726038525097	0.3347236820118576	1.274525518746207
